<?xml version="1.0" encoding="UTF-8" standalone="no"?>
<svg
   xmlns:dc="http://purl.org/dc/elements/1.1/"
   xmlns:cc="http://creativecommons.org/ns#"
   xmlns:rdf="http://www.w3.org/1999/02/22-rdf-syntax-ns#"
   xmlns:svg="http://www.w3.org/2000/svg"
   xmlns="http://www.w3.org/2000/svg"
   xmlns:sodipodi="http://sodipodi.sourceforge.net/DTD/sodipodi-0.dtd"
   xmlns:inkscape="http://www.inkscape.org/namespaces/inkscape"
   class="svg-logo1"
   version="1.1"
   viewBox="0 0 228.76404 44.256772"
   id="svg16"
   sodipodi:docname="acerspyro.svg"
   width="228.76404"
   height="44.256771"
   inkscape:version="0.92.4 (5da689c313, 2019-01-14)">
  <metadata
     id="metadata22">
    <rdf:RDF>
      <cc:Work
         rdf:about="">
        <dc:format>image/svg+xml</dc:format>
        <dc:type
           rdf:resource="http://purl.org/dc/dcmitype/StillImage" />
        <dc:title></dc:title>
      </cc:Work>
    </rdf:RDF>
  </metadata>
  <defs
     id="defs20" />
  <sodipodi:namedview
     pagecolor="#ffffff"
     bordercolor="#666666"
     borderopacity="1"
     objecttolerance="10"
     gridtolerance="10"
     guidetolerance="10"
     inkscape:pageopacity="0"
     inkscape:pageshadow="2"
     inkscape:window-width="1440"
     inkscape:window-height="803"
     id="namedview18"
     showgrid="false"
     inkscape:snap-global="false"
     inkscape:object-paths="true"
     inkscape:snap-bbox="true"
     inkscape:snap-smooth-nodes="true"
     inkscape:snap-intersection-paths="false"
     inkscape:snap-midpoints="true"
     inkscape:snap-center="false"
     inkscape:object-nodes="true"
     fit-margin-top="0"
     fit-margin-left="0"
     fit-margin-right="0"
     fit-margin-bottom="0"
     inkscape:zoom="4"
     inkscape:cx="118.04491"
     inkscape:cy="13.989182"
     inkscape:window-x="0"
     inkscape:window-y="1"
     inkscape:window-maximized="1"
     inkscape:current-layer="svg16">
    <inkscape:grid
       type="xygrid"
       id="grid24"
       originx="-3.5527137e-15"
       originy="-0.00385366" />
  </sodipodi:namedview>
  <path
     inkscape:connector-curvature="0"
     id="path955"
     d="M 216.58594,1.9550731 A 12.798484,19.363275 4.7403564 0 0 204.11719,14.873042 l 4.96679,9.93164 -5.58007,2.791016 a 12.798484,19.363275 4.7403564 0 0 10.82226,12.982422 12.798484,19.363275 4.7403564 0 0 14.33985,-18.265625 12.798484,19.363275 4.7403564 0 0 -11.17188,-20.3320312 12.798484,19.363275 4.7403564 0 0 -0.90625,-0.025391 12.798484,19.363275 4.7403564 0 1 -0.002,0 z m 0.1875,8.6328129 c -0.002,-1.7e-4 0.634,0.0271 1.68164,1.933593 1.04763,1.90642 1.88718,5.288805 1.57617,9.078125 -0.31102,3.78933 -1.69243,6.994352 -3.03711,8.707032 -1.34467,1.71266 -1.97672,1.636548 -1.97461,1.636718 0.002,1.7e-4 -0.63401,-0.0271 -1.68164,-1.933593 -1.04763,-1.90641 -1.88718,-5.290748 -1.57617,-9.080079 0.31101,-3.78933 1.69243,-6.992398 3.03711,-8.705078 1.34467,-1.71267 1.97673,-1.636548 1.97461,-1.636718 z"
     style="color:#000000;font-style:normal;font-variant:normal;font-weight:normal;font-stretch:normal;font-size:medium;line-height:normal;font-family:sans-serif;font-variant-ligatures:normal;font-variant-position:normal;font-variant-caps:normal;font-variant-numeric:normal;font-variant-alternates:normal;font-feature-settings:normal;text-indent:0;text-align:start;text-decoration:none;text-decoration-line:none;text-decoration-style:solid;text-decoration-color:#000000;letter-spacing:normal;word-spacing:normal;text-transform:none;writing-mode:lr-tb;direction:ltr;text-orientation:mixed;dominant-baseline:auto;baseline-shift:baseline;text-anchor:start;white-space:normal;shape-padding:0;clip-rule:nonzero;display:inline;overflow:visible;visibility:visible;opacity:1;isolation:auto;mix-blend-mode:normal;color-interpolation:sRGB;color-interpolation-filters:linearRGB;solid-color:#000000;solid-opacity:1;vector-effect:none;fill:#ffffff;fill-opacity:1;fill-rule:nonzero;stroke:none;stroke-width:17.30000496;stroke-linecap:butt;stroke-linejoin:miter;stroke-miterlimit:4;stroke-dasharray:none;stroke-dashoffset:0;stroke-opacity:1;color-rendering:auto;image-rendering:auto;shape-rendering:auto;text-rendering:auto;enable-background:accumulate" />
  <path
     style="shape-rendering:auto;fill:#ffffff;fill-opacity:1"
     inkscape:connector-curvature="0"
     id="path2"
     d="m 19.051,2.37062 -19.051,38.1 7.5723,3.7852 11.031,-22.061 -2.61e-4,7.4682 h -2.1167 c 2.1167,2.1167 2.1167,6.35 2.1169,8.4673 l 8.4664,2.116 3.91e-4,-35.983 z" />
  <path
     style="shape-rendering:auto;fill:#ffffff;fill-opacity:1"
     inkscape:connector-curvature="0"
     id="path4"
     d="m 44.421,2.11062 c -2.3512,-0.37861 -4.8846,0.16285 -6.9319,1.4873 -5.4595,3.5319 -7.9691,10.411 -8.3488,17.813 -0.37971,7.4015 1.3671,14.455 6.9972,17.871 2.815,1.7082 6.4679,1.6773 9.2321,0.2336 2.7642,-1.4437 4.8401,-3.9352 6.3987,-7.0382 l -7.537,-3.9268 c -0.9678,1.9267 -2.096,2.9639 -2.7264,3.2932 -0.6304,0.3293 -0.56217,0.31525 -1.0331,0.0296 -0.94176,-0.57149 -3.1488,-4.6861 -2.8755,-10.014 0.27333,-5.3278 2.8833,-9.9819 4.4328,-10.984 0.77476,-0.50122 0.77526,-0.40114 1.1293,-0.23583 0.35404,0.16533 1.1994,0.86112 1.9175,2.5843 l 7.7945,-3.3684 C 51.5687,6.73179 49.5585,4.14239 46.6861,2.80109 45.96801,2.46577 45.2045,2.23708 44.4208,2.11088 Z" />
  <path
     style="shape-rendering:auto;fill:#ffffff;fill-opacity:1"
     inkscape:connector-curvature="0"
     id="path6"
     d="m 79.289062,1.9902344 -25.398437,4.2324218 1.392578,8.3515628 25.396485,-4.232422 z m 0,12.9199216 -25.398437,4.234375 1.392578,8.34961 25.396485,-4.232422 z m 0,12.84961 -25.398437,4.234375 1.392578,8.351562 25.396485,-4.234375 z" />
  <path
     style="stroke-width:0.26458001;shape-rendering:auto;fill:#ffffff;fill-opacity:1"
     inkscape:connector-curvature="0"
     id="path12"
     d="M 99.585366,0.1384736 82.101391,4.2653924 V 40.248272 l 8.46656,-2.11664 v -4.230634 l 4.681743,-2.341427 6.349386,12.697194 7.57202,-3.785346 -6.34992,-12.698781 8.4655,-4.23381 L 99.58616,0.13857943 h -0.0011 z m -4.574323,9.7791414 4.918013,9.836555 -9.361105,4.681214 V 10.966146 Z" />
  <path
     inkscape:connector-curvature="0"
     id="path41"
     d="m 120.23836,2.3807 c -4.73717,0.5775 -8.87311,3.12574 -10.70898,7.46094 -1.6616,3.92367 -0.10654,8.42716 2.44726,10.80273 2.5538,2.37557 5.73984,3.58772 8.91406,4.22461 1.40417,0.28174 3.0048,1.42725 3.54883,2.32812 0.54403,0.90088 0.80194,0.94081 -0.32617,2.23633 -1.3921,1.59869 -3.1905,2.36948 -4.84961,2.33008 -1.65911,-0.0394 -3.35186,-0.71402 -5.03711,-3.15234 l -6.99219,4.83398 c 2.98388,4.31725 7.4357,6.71209 11.82813,6.81641 4.39242,0.10432 8.55236,-1.90589 11.46094,-5.2461 3.17256,-3.64337 3.22396,-8.84516 1.1914,-12.21093 -2.03256,-3.36578 -5.37721,-5.51208 -9.15234,-6.26953 -2.00509,-0.40231 -3.98925,-1.36202 -4.79688,-2.11329 -0.80762,-0.75126 -0.80531,-0.32788 -0.4082,-1.26562 0.22284,-0.5262 2.0196,-2.10766 3.9082,-2.33789 1.88861,-0.23024 3.51163,0.0391 5.18555,2.95898 L 133.8243,9.54867 C 130.67005,4.04665 124.97553,1.8032 120.23836,2.3807 Z"
     style="color:#000000;font-style:normal;font-variant:normal;font-weight:normal;font-stretch:normal;font-size:medium;line-height:normal;font-family:sans-serif;font-variant-ligatures:normal;font-variant-position:normal;font-variant-caps:normal;font-variant-numeric:normal;font-variant-alternates:normal;font-feature-settings:normal;text-indent:0;text-align:start;text-decoration:none;text-decoration-line:none;text-decoration-style:solid;text-decoration-color:#000000;letter-spacing:normal;word-spacing:normal;text-transform:none;writing-mode:lr-tb;direction:ltr;text-orientation:mixed;dominant-baseline:auto;baseline-shift:baseline;text-anchor:start;white-space:normal;shape-padding:0;clip-rule:nonzero;display:inline;overflow:visible;visibility:visible;opacity:1;isolation:auto;mix-blend-mode:normal;color-interpolation:sRGB;color-interpolation-filters:linearRGB;solid-color:#000000;solid-opacity:1;vector-effect:none;fill:#ffffff;fill-opacity:1;fill-rule:nonzero;stroke:none;stroke-width:8.5;stroke-linecap:butt;stroke-linejoin:miter;stroke-miterlimit:4;stroke-dasharray:none;stroke-dashoffset:0;stroke-opacity:1;color-rendering:auto;image-rendering:auto;shape-rendering:auto;text-rendering:auto;enable-background:accumulate" />
  <path
     sodipodi:nodetypes="cccccccccccc"
     inkscape:connector-curvature="0"
     id="path869"
     d="m 153.57617,0.07421 -17.3789,4.16211 0.0137,36.01195 8.5,-2.16211 -0.004,-8.88695 18.78125,-9.42382 z m -4.56836,9.83399 3.0625,6.08594 -7.36719,3.69726 -0.002,-8.75 z"
     style="color:#000000;font-style:normal;font-variant:normal;font-weight:normal;font-stretch:normal;font-size:medium;line-height:normal;font-family:sans-serif;font-variant-ligatures:normal;font-variant-position:normal;font-variant-caps:normal;font-variant-numeric:normal;font-variant-alternates:normal;font-feature-settings:normal;text-indent:0;text-align:start;text-decoration:none;text-decoration-line:none;text-decoration-style:solid;text-decoration-color:#000000;letter-spacing:normal;word-spacing:normal;text-transform:none;writing-mode:lr-tb;direction:ltr;text-orientation:mixed;dominant-baseline:auto;baseline-shift:baseline;text-anchor:start;white-space:normal;shape-padding:0;clip-rule:nonzero;display:inline;overflow:visible;visibility:visible;opacity:1;isolation:auto;mix-blend-mode:normal;color-interpolation:sRGB;color-interpolation-filters:linearRGB;solid-color:#000000;solid-opacity:1;vector-effect:none;fill:#ffffff;fill-opacity:1;fill-rule:nonzero;stroke:none;stroke-width:8.5;stroke-linecap:butt;stroke-linejoin:miter;stroke-miterlimit:4;stroke-dasharray:none;stroke-dashoffset:0;stroke-opacity:1;color-rendering:auto;image-rendering:auto;shape-rendering:auto;text-rendering:auto;enable-background:accumulate" />
  <path
     sodipodi:nodetypes="ccccccccc"
     inkscape:connector-curvature="0"
     id="path880"
     d="m 166.40039,-5e-6 -8.32617,2.3320312 10.10547,20.4960938 -6.94506,17.396888 8.30468,2.105469 15.22777,-38.123662 -8.25782,-2.2402344 -4.08937,10.2424014 z"
     style="color:#000000;font-style:normal;font-variant:normal;font-weight:normal;font-stretch:normal;font-size:medium;line-height:normal;font-family:sans-serif;font-variant-ligatures:normal;font-variant-position:normal;font-variant-caps:normal;font-variant-numeric:normal;font-variant-alternates:normal;font-feature-settings:normal;text-indent:0;text-align:start;text-decoration:none;text-decoration-line:none;text-decoration-style:solid;text-decoration-color:#000000;letter-spacing:normal;word-spacing:normal;text-transform:none;writing-mode:lr-tb;direction:ltr;text-orientation:mixed;dominant-baseline:auto;baseline-shift:baseline;text-anchor:start;white-space:normal;shape-padding:0;clip-rule:nonzero;display:inline;overflow:visible;visibility:visible;opacity:1;isolation:auto;mix-blend-mode:normal;color-interpolation:sRGB;color-interpolation-filters:linearRGB;solid-color:#000000;solid-opacity:1;vector-effect:none;fill:#ffffff;fill-opacity:1;fill-rule:nonzero;stroke:none;stroke-width:8.5;stroke-linecap:butt;stroke-linejoin:miter;stroke-miterlimit:4;stroke-dasharray:none;stroke-dashoffset:0;stroke-opacity:1;color-rendering:auto;image-rendering:auto;shape-rendering:auto;text-rendering:auto;enable-background:accumulate" />
  <path
     inkscape:connector-curvature="0"
     id="path12-3"
     d="m 193.58594,0.13866687 -4.63282,1.09375003 -3.83398,9.6035151 3.89258,-0.9179682 4.91797,9.8359372 -9.36133,4.681641 V 12.218745 l -8.4668,21.208984 v 6.820313 l 8.4668,-2.117188 v -4.230468 l 4.68164,-2.339844 6.34961,12.695312 7.57227,-3.785156 -6.35157,-12.697266 8.4668,-4.234374 z"
     style="stroke-width:0.26458001;shape-rendering:auto;fill:#ffffff;fill-opacity:1" />
</svg>
